<svg width="353" height="306" viewBox="0 0 353 306" fill="none" xmlns="http://www.w3.org/2000/svg">
<path d="M110.966 127.31C110.711 117.142 118.747 108.692 128.915 108.436L164.694 107.538L165.314 132.205C165.569 142.374 157.533 150.824 147.364 151.079L129.997 151.515C119.829 151.771 111.379 143.734 111.123 133.566L110.966 127.31Z" fill="#EE3523"/>
<path d="M12.7401 145.625C12.4848 135.456 20.521 127.006 30.6894 126.751L66.4681 125.852L67.0874 150.52C67.3428 160.688 59.3066 169.138 49.1382 169.394L31.7711 169.83C21.6027 170.085 13.1525 162.049 12.8972 151.88L12.7401 145.625Z" fill="#EE3523"/>
<path d="M66.5427 38.4942C66.2304 32.2915 70.599 26.8322 76.7193 25.777L142.021 14.5181C149.042 13.3076 155.616 18.3071 156.325 25.3962L156.974 31.8901C157.603 38.1782 153.356 43.9166 147.159 45.1528L67.6763 61.008L66.5427 38.4942Z" fill="#EE3523"/>
<path fill-rule="evenodd" clip-rule="evenodd" d="M130.374 9.79283C124.496 10.1162 116.78 11.6389 105.803 13.8225L86.2342 17.7149C78.5833 19.2367 73.2827 20.2998 69.3141 21.6059C65.4734 22.8698 63.4419 24.1924 62.0319 25.903C60.6219 27.6136 59.7163 29.8541 59.2234 33.8476C58.714 37.9742 58.7054 43.3521 58.7054 51.1121V61.9221L146.763 44.4064C146.755 34.7484 146.679 27.7611 145.917 22.4658C145.102 16.8013 143.618 14.0066 141.392 12.1917C139.166 10.3767 136.119 9.47685 130.374 9.79283ZM146.763 54.33L58.7054 71.8459V135.493C58.7054 135.648 58.7054 135.802 58.7055 135.953C58.7062 139.285 58.7067 141.567 58.3458 143.637C56.8785 152.054 51.0798 159.089 43.069 162.171C41.0988 162.929 38.8482 163.376 35.563 164.029L31.8696 164.763C29.5151 165.232 27.9234 165.549 26.5568 165.666C13.3421 166.796 1.62929 157.246 0.152217 144.137C-0.000536257 142.781 -0.000307649 141.167 3.11819e-05 138.779L4.05129e-05 138.147C-0.000213173 136.139 -0.000385795 134.772 0.120167 133.567C1.27341 122.035 10.445 112.913 22.0396 111.766C23.2517 111.646 24.6262 111.646 26.6448 111.647L48.9212 111.647V50.7981C48.9211 43.4272 48.921 37.4504 49.5121 32.6619C50.1279 27.6726 51.44 23.4039 54.4654 19.7336C57.4907 16.0634 61.4421 13.9466 66.2404 12.3675C70.8457 10.8519 76.7386 9.67982 84.0058 8.2344L104.272 4.20309C114.772 2.11452 123.175 0.442945 129.834 0.0766461C136.709 -0.301516 142.658 0.641438 147.595 4.66624C152.531 8.69105 154.628 14.308 155.603 21.0872C156.548 27.6537 156.548 36.1766 156.548 46.8256V116.031C156.548 116.186 156.548 116.34 156.548 116.491C156.548 119.823 156.549 122.105 156.188 124.175C154.721 132.592 148.922 139.627 140.911 142.709C138.941 143.467 136.69 143.914 133.405 144.566C133.256 144.596 133.105 144.626 132.951 144.657L129.711 145.301C127.357 145.77 125.766 146.087 124.399 146.204C111.184 147.334 99.4715 137.784 97.9944 124.675C97.8417 123.319 97.8419 121.705 97.8423 119.317L97.8423 118.685C97.842 116.677 97.8418 115.31 97.9624 114.104C99.1156 102.573 108.287 93.4511 119.882 92.3041C121.094 92.1842 122.468 92.1844 124.487 92.1847L146.763 92.1847V54.33ZM146.763 101.916H124.773C122.361 101.916 121.514 101.922 120.85 101.987C113.894 102.676 108.391 108.149 107.699 115.068C107.633 115.728 107.627 116.571 107.627 118.969C107.627 121.833 107.634 122.851 107.718 123.591C108.604 131.457 115.632 137.187 123.561 136.508C124.307 136.445 125.312 136.253 128.136 135.691L131.033 135.115C134.944 134.337 136.3 134.049 137.382 133.633C142.188 131.784 145.667 127.563 146.548 122.513C146.746 121.377 146.763 119.997 146.763 116.031V101.916ZM48.9212 121.378H26.9307C24.5192 121.378 23.6717 121.384 23.008 121.449C16.0513 122.138 10.5483 127.611 9.85635 134.53C9.79034 135.19 9.78429 136.033 9.78429 138.431C9.78429 141.295 9.79219 142.313 9.87558 143.053C10.7618 150.919 17.7895 156.649 25.7183 155.97C26.4644 155.907 27.4696 155.715 30.2933 155.153L33.1904 154.577C37.1014 153.799 38.4579 153.511 39.5393 153.095C44.3458 151.246 47.825 147.025 48.7054 141.975C48.9035 140.839 48.9212 139.459 48.9212 135.493V121.378Z" fill="white"/>
<path d="M257.183 146.819L249.784 142.498C242.935 138.499 234.352 143.586 234.599 151.497L238.918 289.589C239.177 297.864 248.783 302.305 255.282 297.155L262.063 291.78C265.81 288.81 271.132 288.874 274.806 291.931L288.903 303.663C292.948 307.03 298.909 306.726 302.589 302.965L315.428 289.843C318.641 286.559 323.674 285.858 327.665 288.139L337.488 293.751C344.215 297.594 352.594 292.75 352.594 285.018V147.598C352.594 139.494 343.483 134.713 336.788 139.303L326.869 146.104C323.295 148.554 318.55 148.452 315.084 145.85L298.003 133.024C294.409 130.325 289.458 130.325 285.865 133.024L268.351 146.175C265.099 148.616 260.695 148.871 257.183 146.819Z" fill="#EE3523"/>
<path fill-rule="evenodd" clip-rule="evenodd" d="M270.218 110.812C274.905 107.063 281.565 107.063 286.253 110.812L301.491 123.003C302.498 123.808 303.911 123.87 304.984 123.154L317.517 114.799C326.046 109.113 337.471 115.227 337.471 125.477V263.796C337.471 274.046 326.046 280.16 317.517 274.474L304.984 266.119C303.911 265.403 302.498 265.465 301.491 266.27L286.253 278.461C281.565 282.21 274.905 282.21 270.218 278.461L254.98 266.27C253.973 265.465 252.56 265.403 251.487 266.119L238.953 274.474C230.424 280.16 219 274.046 219 263.796V125.477C219 115.227 230.424 109.113 238.953 114.799L251.487 123.154C252.56 123.87 253.973 123.808 254.98 123.003L270.218 110.812ZM280.085 118.522C279.004 117.656 277.467 117.656 276.385 118.522L261.147 130.712C256.783 134.203 250.661 134.469 246.011 131.369L233.477 123.013C231.509 121.701 228.873 123.112 228.873 125.477V263.796C228.873 266.161 231.509 267.572 233.477 266.26L246.011 257.904C250.661 254.804 256.783 255.07 261.147 258.561L276.385 270.751C277.467 271.617 279.004 271.617 280.085 270.751L295.323 258.561C299.688 255.07 305.81 254.804 310.46 257.904L322.993 266.26C324.962 267.572 327.598 266.161 327.598 263.796V125.477C327.598 123.112 324.962 121.701 322.993 123.013L310.46 131.369C305.81 134.469 299.688 134.203 295.323 130.712L280.085 118.522Z" fill="white"/>
<path fill-rule="evenodd" clip-rule="evenodd" d="M248.618 169.955C248.618 167.229 250.828 165.019 253.554 165.019H302.917C305.643 165.019 307.853 167.229 307.853 169.955C307.853 172.681 305.643 174.891 302.917 174.891H253.554C250.828 174.891 248.618 172.681 248.618 169.955Z" fill="white"/>
<path fill-rule="evenodd" clip-rule="evenodd" d="M248.618 194.637C248.618 191.91 250.828 189.7 253.554 189.7H302.917C305.643 189.7 307.853 191.91 307.853 194.637C307.853 197.363 305.643 199.573 302.917 199.573H253.554C250.828 199.573 248.618 197.363 248.618 194.637Z" fill="white"/>
<path fill-rule="evenodd" clip-rule="evenodd" d="M248.618 219.318C248.618 216.592 250.828 214.382 253.554 214.382H302.917C305.643 214.382 307.853 216.592 307.853 219.318C307.853 222.044 305.643 224.254 302.917 224.254H253.554C250.828 224.254 248.618 222.044 248.618 219.318Z" fill="white"/>
</svg>
