<svg width="353" height="271" viewBox="0 0 353 271" fill="none" xmlns="http://www.w3.org/2000/svg">
<path d="M16.9248 207.5C16.9248 195.482 26.6672 185.74 38.6851 185.74H48.3563C60.3742 185.74 70.1166 195.482 70.1166 207.5V248.603C70.1166 260.621 60.3742 270.363 48.3563 270.363H38.6851C26.6672 270.363 16.9248 260.621 16.9248 248.603V207.5Z" fill="#EE3523"/>
<path d="M145.068 200.247C145.068 188.229 154.811 178.486 166.829 178.486H176.5C188.518 178.486 198.26 188.229 198.26 200.247V241.349C198.26 253.367 188.518 263.11 176.5 263.11H166.829C154.811 263.11 145.068 253.367 145.068 241.349V200.247Z" fill="#EE3523"/>
<path fill-rule="evenodd" clip-rule="evenodd" d="M130.32 186.565C130.32 171.035 142.823 158.445 158.246 158.445C173.668 158.445 186.171 171.035 186.171 186.565V220.308C186.171 235.838 173.668 248.428 158.246 248.428C142.823 248.428 130.32 235.838 130.32 220.308V186.565ZM158.246 169.693C148.992 169.693 141.49 177.247 141.49 186.565V220.308C141.49 229.626 148.992 237.18 158.246 237.18C167.499 237.18 175.001 229.626 175.001 220.308V186.565C175.001 177.247 167.499 169.693 158.246 169.693Z" fill="white"/>
<path fill-rule="evenodd" clip-rule="evenodd" d="M0 186.565C0 171.035 11.8082 158.445 26.3743 158.445C40.9404 158.445 52.7485 171.035 52.7485 186.565V220.308C52.7485 235.838 40.9404 248.428 26.3743 248.428C11.8082 248.428 0 235.838 0 220.308V186.565ZM26.3743 169.693C17.6346 169.693 10.5497 177.247 10.5497 186.565V220.308C10.5497 229.626 17.6346 237.18 26.3743 237.18C35.1139 237.18 42.1988 229.626 42.1988 220.308V186.565C42.1988 177.247 35.1139 169.693 26.3743 169.693Z" fill="white"/>
<path fill-rule="evenodd" clip-rule="evenodd" d="M180.696 187.419C183.72 187.419 186.171 184.988 186.171 181.989C186.171 154.819 176.503 128.653 159.128 109.269C141.734 89.8639 117.996 78.8188 93.0856 78.8188C68.1757 78.8188 44.4371 89.8639 27.0435 109.269C9.66856 128.653 3.5901e-06 154.819 0 181.989C-6.52745e-07 184.988 2.45152 187.419 5.47562 187.419C8.49973 187.419 10.9512 184.988 10.9512 181.989C10.9513 157.314 19.7433 133.759 35.2285 116.484C50.6951 99.2288 71.5243 89.6788 93.0856 89.6788C114.647 89.6788 135.476 99.2288 150.943 116.484C166.428 133.759 175.22 157.314 175.22 181.989C175.22 184.988 177.672 187.419 180.696 187.419Z" fill="white"/>
<path d="M215.185 30.8944C215.185 24.2178 220.598 18.8054 227.274 18.8054H340.911C347.588 18.8054 353 24.2178 353 30.8944V96.1752C353 102.852 347.588 108.264 340.911 108.264H227.274C220.598 108.264 215.185 102.852 215.185 96.1752V30.8944Z" fill="#EE3523"/>
<path d="M231.85 125.753C230.955 127.523 228.428 127.523 227.533 125.753L216.806 104.519C215.994 102.911 217.163 101.011 218.965 101.011L240.418 101.011C242.22 101.011 243.389 102.911 242.576 104.519L231.85 125.753Z" fill="#EE3523"/>
<path fill-rule="evenodd" clip-rule="evenodd" d="M229.199 8.70644C225.227 9.0277 222.711 9.6421 220.692 10.6608C216.711 12.6688 213.475 15.873 211.446 19.814C210.417 21.8132 209.797 24.3042 209.472 28.2363C209.144 32.2173 209.141 37.2958 209.141 44.403V111.367L224.826 95.8379C227.206 93.4812 230.435 92.1572 233.802 92.1572H291.225C298.404 92.1572 303.534 92.1539 307.555 91.8286C311.526 91.5074 314.042 90.893 316.062 89.8743C320.043 87.8663 323.279 84.6621 325.307 80.7211C326.336 78.7218 326.957 76.2308 327.281 72.2988C327.61 68.3178 327.613 63.2393 327.613 56.1321V44.403C327.613 37.2958 327.61 32.2173 327.281 28.2363C326.957 24.3042 326.336 21.8132 325.307 19.814C323.279 15.873 320.043 12.6688 316.062 10.6608C314.042 9.6421 311.526 9.0277 307.555 8.70644C303.534 8.38118 298.404 8.37792 291.225 8.37792H245.529C238.35 8.37792 233.22 8.38118 229.199 8.70644ZM245.341 4.94234e-07H291.413C298.363 -2.74701e-05 303.838 -5.04357e-05 308.244 0.356341C312.739 0.719933 316.493 1.47524 319.904 3.19599C325.477 6.00726 330.008 10.4931 332.847 16.0105C334.585 19.3876 335.348 23.1039 335.716 27.5541C336.076 31.9161 336.076 37.3363 336.075 44.2168V56.3182C336.076 63.1987 336.076 68.619 335.716 72.981C335.348 77.4312 334.585 81.1474 332.847 84.5246C330.008 90.042 325.477 94.5278 319.904 97.3391C316.493 99.0598 312.739 99.8151 308.244 100.179C303.838 100.535 298.363 100.535 291.413 100.535H233.802C232.679 100.535 231.603 100.976 230.81 101.762L214.402 118.006C209.338 123.02 200.678 119.469 200.678 112.378L200.678 44.2169C200.678 37.3364 200.678 31.9161 201.038 27.5541C201.405 23.1039 202.168 19.3876 203.906 16.0105C206.746 10.4931 211.277 6.00726 216.85 3.19599C220.261 1.47524 224.015 0.719933 228.51 0.356341C232.916 -5.04357e-05 238.391 -2.74701e-05 245.341 4.94234e-07Z" fill="white"/>
<path fill-rule="evenodd" clip-rule="evenodd" d="M236.783 37.6102C236.783 35.1176 238.635 33.097 240.92 33.097L298.84 33.097C301.125 33.097 302.977 35.1176 302.977 37.6102C302.977 40.1028 301.125 42.1235 298.84 42.1235L240.92 42.1235C238.635 42.1235 236.783 40.1028 236.783 37.6102Z" fill="white"/>
<path fill-rule="evenodd" clip-rule="evenodd" d="M236.783 61.6809C236.783 59.1883 238.579 57.1677 240.795 57.1677L280.913 57.1677C283.128 57.1677 284.924 59.1883 284.924 61.6809C284.924 64.1735 283.128 66.1941 280.913 66.1941L240.795 66.1941C238.579 66.1941 236.783 64.1735 236.783 61.6809Z" fill="white"/>
</svg>
